<svg width="9" height="6" viewBox="0 0 9 6" fill="none" xmlns="http://www.w3.org/2000/svg">
<path d="M7.74154 0.26811C7.9135 0.445689 8.00965 0.683192 8.00965 0.930386C8.00965 1.17758 7.9135 1.41508 7.74154 1.59266L3.60231 5.73189C3.42473 5.90385 3.18723 6 2.94004 6C2.69284 6 2.45534 5.90385 2.27776 5.73189L0.208145 3.66228C0.0632146 3.48082 -0.0103905 3.25264 0.00118396 3.0207C0.00858886 2.79055 0.101942 2.57152 0.26284 2.40679C0.423739 2.24206 0.640509 2.14358 0.870422 2.13076C1.10237 2.11919 1.33054 2.19279 1.512 2.33772L2.94004 3.75541L6.41699 0.26811C6.59457 0.0961481 6.83207 0 7.07926 0C7.32646 0 7.56396 0.0961481 7.74154 0.26811Z" fill="white"/>
</svg>
